<svg xmlns="http://www.w3.org/2000/svg" width="192" height="192" viewBox="0 0 192 192"><rect width="100%" height="100%" fill="#DDDDDD"/><path fill="#999999" d="M45.355 111.815h-5.32v-22.06h3.25q1.03 0 1.36.97l.34 1.63q.58-.64 1.21-1.18.64-.54 1.36-.92.72-.39 1.55-.62.82-.22 1.81-.22 2.09 0 3.43 1.13 1.35 1.12 2.01 2.99.52-1.09 1.29-1.88.78-.78 1.7-1.28.93-.49 1.97-.73 1.04-.23 2.1-.23 1.82 0 3.24.56 1.42.55 2.39 1.63.97 1.07 1.47 2.62.51 1.55.51 3.55v14.04h-5.31v-14.04q0-2.11-.93-3.17-.92-1.07-2.71-1.07-.81 0-1.51.28t-1.23.81-.83 1.32q-.3.8-.3 1.83v14.04h-5.33v-14.04q0-2.21-.89-3.22-.89-1.02-2.61-1.02-1.17 0-2.16.57-1 .57-1.86 1.56zm40.46-22.4q2.45 0 4.46.79 2.01.8 3.44 2.26t2.2 3.57q.78 2.11.78 4.71 0 2.62-.78 4.73-.77 2.1-2.2 3.59-1.43 1.48-3.44 2.28-2.01.79-4.46.79-2.47 0-4.5-.79-2.02-.8-3.45-2.28-1.43-1.49-2.21-3.59-.79-2.11-.79-4.73 0-2.6.79-4.71.78-2.11 2.21-3.57t3.45-2.26q2.03-.79 4.5-.79m0 18.64q2.75 0 4.07-1.85t1.32-5.42-1.32-5.44-4.07-1.87q-2.8 0-4.14 1.88t-1.34 5.43 1.34 5.41 4.14 1.86m32.14-15.57-1.4 1.94q-.23.3-.46.47-.22.17-.65.17-.41 0-.8-.25-.39-.24-.92-.55-.54-.32-1.28-.56-.75-.25-1.84-.25-1.4 0-2.45.5-1.06.51-1.76 1.46-.69.94-1.04 2.29-.34 1.34-.34 3.04 0 1.76.37 3.14.38 1.37 1.09 2.31.71.93 1.72 1.42 1.01.48 2.28.48t2.05-.31q.79-.31 1.32-.69.54-.38.94-.69t.89-.31q.65 0 .97.5l1.53 1.93q-.89 1.03-1.92 1.73t-2.14 1.12q-1.1.42-2.28.59-1.17.17-2.33.17-2.04 0-3.85-.76-1.8-.76-3.16-2.23-1.35-1.46-2.14-3.58-.78-2.11-.78-4.82 0-2.43.7-4.51.7-2.07 2.05-3.59 1.35-1.51 3.35-2.37t4.61-.86q2.47 0 4.33.79 1.86.8 3.34 2.28m8.84-12.62v12.26q1.29-1.21 2.84-1.96 1.54-.75 3.63-.75 1.8 0 3.2.61t2.34 1.72q.93 1.11 1.41 2.64.49 1.54.49 3.39v14.04h-5.31v-14.04q0-2.02-.93-3.13-.92-1.11-2.81-1.11-1.38 0-2.58.63-1.21.62-2.28 1.7v15.95h-5.31v-31.95zm19.11 9.89h5.33v22.06h-5.33zm6.06-6.43q0 .69-.28 1.29-.27.6-.74 1.06-.46.45-1.08.72-.63.26-1.34.26-.68 0-1.3-.26-.61-.27-1.06-.72-.45-.46-.72-1.06t-.27-1.29q0-.71.27-1.33t.72-1.08q.45-.45 1.06-.72.62-.26 1.3-.26.71 0 1.34.26.62.27 1.08.72.47.46.74 1.08.28.62.28 1.33"/></svg>