<svg xmlns="http://www.w3.org/2000/svg" width="512" height="512" viewBox="0 0 512 512"><rect width="100%" height="100%" fill="#DDDDDD"/><path fill="#999999" d="M121.71 297.925h-14.08v-58.48h8.61q2.73 0 3.59 2.56l.91 4.33q1.54-1.71 3.22-3.13 1.68-1.43 3.59-2.45 1.91-1.03 4.11-1.63 2.19-.59 4.81-.59 5.53 0 9.09 2.99 3.57 2.99 5.33 7.95 1.37-2.91 3.42-4.99t4.51-3.39q2.45-1.31 5.21-1.94 2.77-.62 5.56-.62 4.84 0 8.61 1.48 3.76 1.48 6.32 4.33 2.57 2.85 3.91 6.95 1.34 4.11 1.34 9.41v37.22h-14.08v-37.22q0-5.59-2.45-8.41t-7.19-2.82q-2.16 0-4.01.74-1.86.74-3.25 2.14-1.4 1.39-2.2 3.5t-.8 4.85v37.22h-14.13v-37.22q0-5.87-2.37-8.55-2.36-2.68-6.92-2.68-3.08 0-5.73 1.51t-4.93 4.13zm107.27-59.39q6.5 0 11.83 2.1 5.33 2.11 9.12 5.99t5.84 9.46q2.05 5.59 2.05 12.48 0 6.96-2.05 12.54-2.05 5.59-5.84 9.52-3.79 3.94-9.12 6.05-5.33 2.1-11.83 2.1-6.55 0-11.91-2.1-5.36-2.11-9.15-6.05-3.79-3.93-5.87-9.52-2.08-5.58-2.08-12.54 0-6.89 2.08-12.48 2.08-5.58 5.87-9.46t9.15-5.99q5.36-2.1 11.91-2.1m0 49.42q7.3 0 10.8-4.91 3.51-4.9 3.51-14.36t-3.51-14.42q-3.5-4.96-10.8-4.96-7.41 0-10.97 4.99-3.56 4.98-3.56 14.39 0 9.4 3.56 14.33 3.56 4.94 10.97 4.94m85.22-41.27-3.71 5.13q-.62.79-1.22 1.25t-1.74.46q-1.08 0-2.11-.66-1.03-.65-2.45-1.48-1.43-.83-3.39-1.48-1.97-.66-4.88-.66-3.7 0-6.49 1.34-2.8 1.34-4.65 3.85t-2.76 6.07q-.92 3.56-.92 8.06 0 4.68 1 8.33 1 3.64 2.88 6.12t4.56 3.77q2.68 1.28 6.04 1.28t5.45-.83q2.08-.82 3.5-1.82 1.43-1 2.48-1.83 1.05-.82 2.37-.82 1.71 0 2.56 1.31l4.05 5.13q-2.34 2.73-5.08 4.59-2.73 1.85-5.67 2.96-2.93 1.11-6.04 1.57-3.11.45-6.18.45-5.42 0-10.21-2.02-4.78-2.02-8.38-5.9-3.59-3.87-5.67-9.49-2.08-5.61-2.08-12.8 0-6.44 1.86-11.94 1.85-5.5 5.44-9.52 3.59-4.01 8.89-6.29t12.2-2.28q6.55 0 11.48 2.1 4.93 2.11 8.87 6.05m23.42-33.46v32.49q3.42-3.19 7.53-5.19 4.1-1.99 9.63-1.99 4.79 0 8.49 1.62 3.71 1.62 6.19 4.56t3.76 7.01q1.28 4.08 1.28 8.98v37.22h-14.08v-37.22q0-5.36-2.45-8.29-2.45-2.94-7.46-2.94-3.65 0-6.84 1.65-3.2 1.66-6.05 4.51v42.29h-14.07v-84.7zm50.68 26.22h14.13v58.48H388.3zm16.07-17.05q0 1.83-.74 3.42-.74 1.6-1.97 2.8-1.22 1.19-2.87 1.91-1.66.71-3.54.71-1.82 0-3.45-.71-1.62-.72-2.82-1.91-1.2-1.2-1.91-2.8-.71-1.59-.71-3.42 0-1.88.71-3.53t1.91-2.85 2.82-1.91q1.63-.71 3.45-.71 1.88 0 3.54.71 1.65.71 2.87 1.91 1.23 1.2 1.97 2.85t.74 3.53"/></svg>